# xmcd
#
# Track frame offsets:
#	150
#	11486
#	21739
#	32563
#	45259
#	57745
#	69199
#	81132
#	92709
#	103311
#	113635
#	125313
#
# Disc length: 1837 seconds
#
# Revision: 0
# Processed by: cddbd v1.5.2PL0 Copyright (c) Steve Scherf et al.
# Submitted via: EasyCDDAExtractor 2010.6.0.0
#
DISCID=97072b0c
DTITLE=The Drifters - Save The Last Dance For Me (US Release)
DYEAR=2005
DGENRE=Soul
TTITLE0=Save The Last Dance For Me
TTITLE1=I Count The Tears
TTITLE2=Somebody New Dancin' With You (LP Version)
TTITLE3=Jackpot
TTITLE4=No Sweet Lovin'
TTITLE5=Sweets For My Sweet
TTITLE6=Mexican Divorce
TTITLE7=When My Little Girl Is Smiling
TTITLE8=Some Kind Of Wonderful
TTITLE9=Please Stay
TTITLE10=Nobody But Me
TTITLE11=Room Full Of Tears
EXTD=
EXTT0=
EXTT1=
EXTT2=
EXTT3=
EXTT4=
EXTT5=
EXTT6=
EXTT7=
EXTT8=
EXTT9=
EXTT10=
EXTT11=
PLAYORDER=
